<mxfile host="Electron" agent="Mozilla/5.0 (X11; Linux x86_64) AppleWebKit/537.36 (KHTML, like Gecko) draw.io/26.0.4 Chrome/128.0.6613.186 Electron/32.2.5 Safari/537.36" version="26.0.4">
  <diagram id="C5RBs43oDa-KdzZeNtuy" name="Page-1">
    <mxGraphModel dx="2831" dy="2372" grid="1" gridSize="10" guides="1" tooltips="1" connect="1" arrows="1" fold="1" page="1" pageScale="1" pageWidth="827" pageHeight="1169" math="0" shadow="0">
      <root>
        <mxCell id="WIyWlLk6GJQsqaUBKTNV-0" />
        <mxCell id="WIyWlLk6GJQsqaUBKTNV-1" parent="WIyWlLk6GJQsqaUBKTNV-0" />
        <mxCell id="Q4mTtLXMbuz6-RH1aTCQ-0" value="PT1&#xa;(bf.systems.System)" style="swimlane;fontStyle=3;align=center;verticalAlign=top;childLayout=stackLayout;horizontal=1;startSize=40;horizontalStack=0;resizeParent=1;resizeLast=0;collapsible=1;marginBottom=0;rounded=0;shadow=1;strokeWidth=1;fillColor=#dae8fc;strokeColor=#6c8ebf;swimlaneFillColor=#ffffff;gradientColor=#FFFFFF;" parent="WIyWlLk6GJQsqaUBKTNV-1" vertex="1">
          <mxGeometry x="-676.5" y="-840" width="300" height="764" as="geometry">
            <mxRectangle x="230" y="140" width="160" height="26" as="alternateBounds" />
          </mxGeometry>
        </mxCell>
        <mxCell id="Q4mTtLXMbuz6-RH1aTCQ-1" value="C_NAME  =  &quot;PT1&quot;" style="text;align=left;verticalAlign=top;spacingLeft=4;spacingRight=4;overflow=hidden;rotatable=0;points=[[0,0.5],[1,0.5]];portConstraint=eastwest;fontColor=default;" parent="Q4mTtLXMbuz6-RH1aTCQ-0" vertex="1">
          <mxGeometry y="40" width="300" height="26" as="geometry" />
        </mxCell>
        <mxCell id="Q4mTtLXMbuz6-RH1aTCQ-2" value="C_LATENCY : timedelta = 0.1s" style="text;align=left;verticalAlign=top;spacingLeft=4;spacingRight=4;overflow=hidden;rotatable=0;points=[[0,0.5],[1,0.5]];portConstraint=eastwest;fontColor=default;" parent="Q4mTtLXMbuz6-RH1aTCQ-0" vertex="1">
          <mxGeometry y="66" width="300" height="26" as="geometry" />
        </mxCell>
        <mxCell id="Q4mTtLXMbuz6-RH1aTCQ-21" value="C_BOUNDRIES : list = [-250,250]" style="text;align=left;verticalAlign=top;spacingLeft=4;spacingRight=4;overflow=hidden;rotatable=0;points=[[0,0.5],[1,0.5]];portConstraint=eastwest;fontColor=default;" parent="Q4mTtLXMbuz6-RH1aTCQ-0" vertex="1">
          <mxGeometry y="92" width="300" height="26" as="geometry" />
        </mxCell>
        <mxCell id="Q4mTtLXMbuz6-RH1aTCQ-3" value="C_PLOT_ACTIVE : True" style="text;align=left;verticalAlign=top;spacingLeft=4;spacingRight=4;overflow=hidden;rotatable=0;points=[[0,0.5],[1,0.5]];portConstraint=eastwest;fontColor=default;" parent="Q4mTtLXMbuz6-RH1aTCQ-0" vertex="1">
          <mxGeometry y="118" width="300" height="26" as="geometry" />
        </mxCell>
        <mxCell id="Q4mTtLXMbuz6-RH1aTCQ-22" value="C_SAMPLE_FREQ : int = 20" style="text;align=left;verticalAlign=top;spacingLeft=4;spacingRight=4;overflow=hidden;rotatable=0;points=[[0,0.5],[1,0.5]];portConstraint=eastwest;fontColor=default;" parent="Q4mTtLXMbuz6-RH1aTCQ-0" vertex="1">
          <mxGeometry y="144" width="300" height="26" as="geometry" />
        </mxCell>
        <mxCell id="Q4mTtLXMbuz6-RH1aTCQ-16" value="_K : float" style="text;align=left;verticalAlign=top;spacingLeft=4;spacingRight=4;overflow=hidden;rotatable=0;points=[[0,0.5],[1,0.5]];portConstraint=eastwest;fontColor=default;" parent="Q4mTtLXMbuz6-RH1aTCQ-0" vertex="1">
          <mxGeometry y="170" width="300" height="26" as="geometry" />
        </mxCell>
        <mxCell id="Q4mTtLXMbuz6-RH1aTCQ-17" value="_T : float" style="text;align=left;verticalAlign=top;spacingLeft=4;spacingRight=4;overflow=hidden;rotatable=0;points=[[0,0.5],[1,0.5]];portConstraint=eastwest;fontColor=default;" parent="Q4mTtLXMbuz6-RH1aTCQ-0" vertex="1">
          <mxGeometry y="196" width="300" height="26" as="geometry" />
        </mxCell>
        <mxCell id="Q4mTtLXMbuz6-RH1aTCQ-18" value="_sys_num : int" style="text;align=left;verticalAlign=top;spacingLeft=4;spacingRight=4;overflow=hidden;rotatable=0;points=[[0,0.5],[1,0.5]];portConstraint=eastwest;fontColor=default;" parent="Q4mTtLXMbuz6-RH1aTCQ-0" vertex="1">
          <mxGeometry y="222" width="300" height="26" as="geometry" />
        </mxCell>
        <mxCell id="Q4mTtLXMbuz6-RH1aTCQ-19" value="_y_start : float " style="text;align=left;verticalAlign=top;spacingLeft=4;spacingRight=4;overflow=hidden;rotatable=0;points=[[0,0.5],[1,0.5]];portConstraint=eastwest;fontColor=default;" parent="Q4mTtLXMbuz6-RH1aTCQ-0" vertex="1">
          <mxGeometry y="248" width="300" height="26" as="geometry" />
        </mxCell>
        <mxCell id="Q4mTtLXMbuz6-RH1aTCQ-20" value="_y_prev : float = None" style="text;align=left;verticalAlign=top;spacingLeft=4;spacingRight=4;overflow=hidden;rotatable=0;points=[[0,0.5],[1,0.5]];portConstraint=eastwest;fontColor=default;" parent="Q4mTtLXMbuz6-RH1aTCQ-0" vertex="1">
          <mxGeometry y="274" width="300" height="26" as="geometry" />
        </mxCell>
        <mxCell id="Q4mTtLXMbuz6-RH1aTCQ-4" value="" style="line;html=1;strokeWidth=1;align=left;verticalAlign=middle;spacingTop=-1;spacingLeft=3;spacingRight=3;rotatable=0;labelPosition=right;points=[];portConstraint=eastwest;" parent="Q4mTtLXMbuz6-RH1aTCQ-0" vertex="1">
          <mxGeometry y="300" width="300" height="8" as="geometry" />
        </mxCell>
        <mxCell id="Q4mTtLXMbuz6-RH1aTCQ-5" value="__init__(    &#xa;             p_K : float,&#xa;             p_T : float,&#xa;             p_sys_num : int,                  &#xa;             p_y_start : float =0,&#xa;             p_boundaries : list = [-250,250],&#xa;             p_id = None,&#xa;                               p_name : str = None,&#xa;                               p_range_max : int = Async.C_RANGE_NONE,&#xa;                               p_autorun = Task.C_AUTORUN_NONE,&#xa;                               p_class_shared = None,&#xa;                               p_mode = Mode.C_MODE_SIM,&#xa;                               p_latency : timedelta = None,&#xa;                               p_t_step : timedelta = None,&#xa;                               p_fct_strans : FctSTrans = None,&#xa;                               p_fct_success : FctSuccess = None,&#xa;                               p_fct_broken : FctBroken = None,&#xa;                               p_mujoco_file = None,&#xa;                               p_frame_skip : int = 1,&#xa;                               p_state_mapping = None,&#xa;                               p_action_mapping = None,&#xa;                               p_camera_conf : tuple = (None, None, None),&#xa;                               p_visualize : bool = False,&#xa;                               p_logging = Log.C_LOG_ALL,&#xa;                               **p_kwargs )" style="text;align=left;verticalAlign=top;spacingLeft=4;spacingRight=4;overflow=hidden;rotatable=0;points=[[0,0.5],[1,0.5]];portConstraint=eastwest;fontColor=default;" parent="Q4mTtLXMbuz6-RH1aTCQ-0" vertex="1">
          <mxGeometry y="308" width="300" height="352" as="geometry" />
        </mxCell>
        <mxCell id="Q4mTtLXMbuz6-RH1aTCQ-6" value="_reset( p_seed = None, **p_kwargs )" style="text;align=left;verticalAlign=top;spacingLeft=4;spacingRight=4;overflow=hidden;rotatable=0;points=[[0,0.5],[1,0.5]];portConstraint=eastwest;fontColor=default;" parent="Q4mTtLXMbuz6-RH1aTCQ-0" vertex="1">
          <mxGeometry y="660" width="300" height="26" as="geometry" />
        </mxCell>
        <mxCell id="Q4mTtLXMbuz6-RH1aTCQ-7" value="_simulate_reaction(  &#xa;                              p_state: State = None,&#xa;                              p_action: Action = None, &#xa;                              p_t_step:timedelta = None&#xa;                              )--&gt;State" style="text;align=left;verticalAlign=top;spacingLeft=4;spacingRight=4;overflow=hidden;rotatable=0;points=[[0,0.5],[1,0.5]];portConstraint=eastwest;fontColor=default;" parent="Q4mTtLXMbuz6-RH1aTCQ-0" vertex="1">
          <mxGeometry y="686" width="300" height="78" as="geometry" />
        </mxCell>
        <mxCell id="LDZReraB6UW1OvF2Z4t5-0" value="&lt;font color=&quot;#000000&quot; size=&quot;1&quot;&gt;&lt;b style=&quot;font-size: 14px&quot;&gt;Legend:&lt;br&gt;&lt;/b&gt;&lt;/font&gt;&lt;br&gt;&lt;br&gt;&lt;br&gt;&lt;font color=&quot;#0000ff&quot; style=&quot;font-size: 6px&quot;&gt;&lt;br&gt;&lt;/font&gt;&lt;span style=&quot;color: rgb(0 , 0 , 0)&quot;&gt;&lt;font style=&quot;font-size: 4px&quot;&gt;&amp;nbsp; &amp;nbsp;&lt;/font&gt;&amp;nbsp;In progress&amp;nbsp; &amp;nbsp; &amp;nbsp; &amp;nbsp; &amp;nbsp; &amp;nbsp; In validation&amp;nbsp; &amp;nbsp; &amp;nbsp; &amp;nbsp; &amp;nbsp; &amp;nbsp;Ready to use&lt;/span&gt;&lt;font color=&quot;#000000&quot;&gt;&amp;nbsp;&lt;br&gt;&lt;/font&gt;&lt;font color=&quot;#0000ff&quot;&gt;&lt;br&gt;&lt;br&gt;&lt;br&gt;&lt;br&gt;&amp;nbsp;attribute / method()&amp;nbsp; &amp;nbsp; &amp;nbsp; &amp;nbsp; New public attribute/method to be implemented&lt;/font&gt;&lt;br&gt;&lt;font color=&quot;#000000&quot;&gt;&amp;nbsp;&lt;/font&gt;&lt;font color=&quot;#000000&quot;&gt;attribute / method()&lt;span&gt; &lt;/span&gt;&amp;nbsp; &amp;nbsp; &amp;nbsp; &amp;nbsp;New/inherited public attribute/method that is implemented here&lt;br&gt;&lt;/font&gt;&lt;font color=&quot;#0000ff&quot;&gt;&amp;nbsp;_attribute /&amp;nbsp;&lt;/font&gt;&lt;font color=&quot;#0000ff&quot;&gt;_method()&amp;nbsp; &amp;nbsp; New protected method/attribute to be implemented&lt;/font&gt;&lt;br&gt;&lt;font color=&quot;#000000&quot;&gt;&amp;nbsp;_attribute / _method()&amp;nbsp; &amp;nbsp; New/inherited protected attribute/method that is implemented here&lt;br&gt;&lt;/font&gt;&lt;font color=&quot;#000000&quot;&gt;&lt;br&gt;&lt;br&gt;&lt;br&gt;&lt;br&gt;&lt;br&gt;&lt;/font&gt;" style="text;html=1;align=left;verticalAlign=top;whiteSpace=wrap;rounded=0;fontColor=#006600;strokeColor=#000000;shadow=1;fillColor=#ffffff;" parent="WIyWlLk6GJQsqaUBKTNV-1" vertex="1">
          <mxGeometry x="-799" y="-1119" width="489.99999999999994" height="220" as="geometry" />
        </mxCell>
        <mxCell id="LDZReraB6UW1OvF2Z4t5-1" value="Depends on" style="endArrow=block;html=1;labelPosition=right;verticalLabelPosition=middle;align=left;verticalAlign=middle;endFill=1;fontSize=12;" parent="WIyWlLk6GJQsqaUBKTNV-1" edge="1">
          <mxGeometry x="-1572.9149999999997" y="-2140" width="51.041666666666664" height="50" as="geometry">
            <mxPoint x="-778.581976010101" y="-998.996984126984" as="sourcePoint" />
            <mxPoint x="-732.7991477272728" y="-998.996984126984" as="targetPoint" />
            <mxPoint x="98" as="offset" />
            <Array as="points">
              <mxPoint x="-758.165" y="-999" />
            </Array>
          </mxGeometry>
        </mxCell>
        <mxCell id="LDZReraB6UW1OvF2Z4t5-2" value="Inherits from" style="endArrow=block;html=1;labelPosition=right;verticalLabelPosition=middle;align=left;verticalAlign=middle;endFill=0;fontSize=12;" parent="WIyWlLk6GJQsqaUBKTNV-1" edge="1">
          <mxGeometry x="-1572.9149999999997" y="-2140" width="51.041666666666664" height="50" as="geometry">
            <mxPoint x="-778.581976010101" y="-986.6153968253966" as="sourcePoint" />
            <mxPoint x="-732.7991477272728" y="-986.6153968253966" as="targetPoint" />
            <mxPoint x="98" y="1" as="offset" />
          </mxGeometry>
        </mxCell>
        <mxCell id="LDZReraB6UW1OvF2Z4t5-3" value="" style="swimlane;fontStyle=3;align=center;verticalAlign=top;childLayout=stackLayout;horizontal=1;startSize=26;horizontalStack=0;resizeParent=1;resizeLast=0;collapsible=1;marginBottom=0;rounded=0;shadow=1;strokeWidth=1;fillColor=#f8cecc;strokeColor=#b85450;gradientColor=#ffffff;swimlaneFillColor=#ffffff;" parent="WIyWlLk6GJQsqaUBKTNV-1" vertex="1">
          <mxGeometry x="-778.5816666666667" y="-1079" width="40.83333333333333" height="34" as="geometry">
            <mxRectangle x="230" y="140" width="160" height="26" as="alternateBounds" />
          </mxGeometry>
        </mxCell>
        <mxCell id="LDZReraB6UW1OvF2Z4t5-4" value="" style="line;html=1;strokeWidth=1;align=left;verticalAlign=middle;spacingTop=-1;spacingLeft=3;spacingRight=3;rotatable=0;labelPosition=right;points=[];portConstraint=eastwest;" parent="LDZReraB6UW1OvF2Z4t5-3" vertex="1">
          <mxGeometry y="26" width="40.83333333333333" height="8" as="geometry" />
        </mxCell>
        <mxCell id="LDZReraB6UW1OvF2Z4t5-5" value="" style="swimlane;fontStyle=3;align=center;verticalAlign=top;childLayout=stackLayout;horizontal=1;startSize=26;horizontalStack=0;resizeParent=1;resizeLast=0;collapsible=1;marginBottom=0;rounded=0;shadow=1;strokeWidth=1;fillColor=#fff2cc;strokeColor=#d6b656;gradientColor=#ffffff;swimlaneFillColor=#ffffff;" parent="WIyWlLk6GJQsqaUBKTNV-1" vertex="1">
          <mxGeometry x="-676.4983333333333" y="-1079" width="40.83333333333333" height="34" as="geometry">
            <mxRectangle x="230" y="140" width="160" height="26" as="alternateBounds" />
          </mxGeometry>
        </mxCell>
        <mxCell id="LDZReraB6UW1OvF2Z4t5-6" value="" style="line;html=1;strokeWidth=1;align=left;verticalAlign=middle;spacingTop=-1;spacingLeft=3;spacingRight=3;rotatable=0;labelPosition=right;points=[];portConstraint=eastwest;" parent="LDZReraB6UW1OvF2Z4t5-5" vertex="1">
          <mxGeometry y="26" width="40.83333333333333" height="8" as="geometry" />
        </mxCell>
        <mxCell id="LDZReraB6UW1OvF2Z4t5-7" value="" style="swimlane;fontStyle=3;align=center;verticalAlign=top;childLayout=stackLayout;horizontal=1;startSize=26;horizontalStack=0;resizeParent=1;resizeLast=0;collapsible=1;marginBottom=0;rounded=0;shadow=1;strokeWidth=1;fillColor=#dae8fc;strokeColor=#6c8ebf;gradientColor=#ffffff;swimlaneFillColor=#ffffff;" parent="WIyWlLk6GJQsqaUBKTNV-1" vertex="1">
          <mxGeometry x="-574.415" y="-1079" width="40.83333333333333" height="34" as="geometry">
            <mxRectangle x="230" y="140" width="160" height="26" as="alternateBounds" />
          </mxGeometry>
        </mxCell>
        <mxCell id="LDZReraB6UW1OvF2Z4t5-8" value="" style="line;html=1;strokeWidth=1;align=left;verticalAlign=middle;spacingTop=-1;spacingLeft=3;spacingRight=3;rotatable=0;labelPosition=right;points=[];portConstraint=eastwest;" parent="LDZReraB6UW1OvF2Z4t5-7" vertex="1">
          <mxGeometry y="26" width="40.83333333333333" height="8" as="geometry" />
        </mxCell>
      </root>
    </mxGraphModel>
  </diagram>
</mxfile>
